<mxfile host="app.diagrams.net" modified="2024-02-04T23:07:18.206Z" agent="Mozilla/5.0 (Windows NT 10.0; Win64; x64) AppleWebKit/537.36 (KHTML, like Gecko) Chrome/121.0.0.0 Safari/537.36" etag="ZPrAr37A3z3QOOKtwPov" version="23.1.1" type="device">
  <diagram id="R2lEEEUBdFMjLlhIrx00" name="Page-1">
    <mxGraphModel dx="819" dy="446" grid="1" gridSize="10" guides="1" tooltips="1" connect="1" arrows="1" fold="1" page="1" pageScale="1" pageWidth="850" pageHeight="1100" background="none" math="0" shadow="0" extFonts="Permanent Marker^https://fonts.googleapis.com/css?family=Permanent+Marker">
      <root>
        <mxCell id="0" />
        <mxCell id="1" parent="0" />
        <mxCell id="Hxyw7TVed6CMUhGU0ngd-3" value="User" style="whiteSpace=wrap;html=1;align=center;" vertex="1" parent="1">
          <mxGeometry x="375" y="80" width="100" height="40" as="geometry" />
        </mxCell>
        <mxCell id="Hxyw7TVed6CMUhGU0ngd-4" value="AdminUser" style="whiteSpace=wrap;html=1;align=center;" vertex="1" parent="1">
          <mxGeometry x="460" y="210" width="100" height="40" as="geometry" />
        </mxCell>
        <mxCell id="Hxyw7TVed6CMUhGU0ngd-5" value="RegularUser" style="whiteSpace=wrap;html=1;align=center;" vertex="1" parent="1">
          <mxGeometry x="290" y="210" width="100" height="40" as="geometry" />
        </mxCell>
        <mxCell id="Hxyw7TVed6CMUhGU0ngd-7" value="Password" style="ellipse;whiteSpace=wrap;html=1;align=center;" vertex="1" parent="1">
          <mxGeometry x="130" y="340" width="100" height="40" as="geometry" />
        </mxCell>
        <mxCell id="Hxyw7TVed6CMUhGU0ngd-12" value="" style="endArrow=none;html=1;rounded=0;entryX=0.5;entryY=1;entryDx=0;entryDy=0;exitX=0.5;exitY=0;exitDx=0;exitDy=0;" edge="1" parent="1" source="Hxyw7TVed6CMUhGU0ngd-14" target="Hxyw7TVed6CMUhGU0ngd-3">
          <mxGeometry width="50" height="50" relative="1" as="geometry">
            <mxPoint x="425" y="180" as="sourcePoint" />
            <mxPoint x="450" y="340" as="targetPoint" />
          </mxGeometry>
        </mxCell>
        <mxCell id="Hxyw7TVed6CMUhGU0ngd-14" value="&lt;font style=&quot;font-size: 8px;&quot;&gt;d&lt;/font&gt;" style="ellipse;whiteSpace=wrap;html=1;aspect=fixed;align=center;" vertex="1" parent="1">
          <mxGeometry x="415" y="150" width="20" height="20" as="geometry" />
        </mxCell>
        <mxCell id="Hxyw7TVed6CMUhGU0ngd-15" value="" style="endArrow=none;html=1;rounded=0;entryX=0;entryY=1;entryDx=0;entryDy=0;" edge="1" parent="1" source="Hxyw7TVed6CMUhGU0ngd-5" target="Hxyw7TVed6CMUhGU0ngd-14">
          <mxGeometry width="50" height="50" relative="1" as="geometry">
            <mxPoint x="365" y="250" as="sourcePoint" />
            <mxPoint x="415" y="200" as="targetPoint" />
          </mxGeometry>
        </mxCell>
        <mxCell id="Hxyw7TVed6CMUhGU0ngd-16" value="" style="endArrow=none;html=1;rounded=0;exitX=0.204;exitY=0.002;exitDx=0;exitDy=0;exitPerimeter=0;entryX=1;entryY=1;entryDx=0;entryDy=0;" edge="1" parent="1" source="Hxyw7TVed6CMUhGU0ngd-4" target="Hxyw7TVed6CMUhGU0ngd-14">
          <mxGeometry width="50" height="50" relative="1" as="geometry">
            <mxPoint x="460" y="250" as="sourcePoint" />
            <mxPoint x="435" y="200" as="targetPoint" />
          </mxGeometry>
        </mxCell>
        <mxCell id="Hxyw7TVed6CMUhGU0ngd-17" value="" style="endArrow=none;html=1;rounded=0;entryX=0;entryY=0;entryDx=0;entryDy=0;exitX=0.75;exitY=1;exitDx=0;exitDy=0;" edge="1" parent="1" source="Hxyw7TVed6CMUhGU0ngd-28" target="Hxyw7TVed6CMUhGU0ngd-7">
          <mxGeometry width="50" height="50" relative="1" as="geometry">
            <mxPoint x="480" y="110" as="sourcePoint" />
            <mxPoint x="510" y="90" as="targetPoint" />
          </mxGeometry>
        </mxCell>
        <mxCell id="Hxyw7TVed6CMUhGU0ngd-18" value="" style="endArrow=none;html=1;rounded=0;exitX=1;exitY=0;exitDx=0;exitDy=0;" edge="1" parent="1" source="Hxyw7TVed6CMUhGU0ngd-3">
          <mxGeometry width="50" height="50" relative="1" as="geometry">
            <mxPoint x="450" y="100" as="sourcePoint" />
            <mxPoint x="500" y="50" as="targetPoint" />
          </mxGeometry>
        </mxCell>
        <mxCell id="Hxyw7TVed6CMUhGU0ngd-20" value="Username" style="ellipse;whiteSpace=wrap;html=1;align=center;fontStyle=4;" vertex="1" parent="1">
          <mxGeometry x="460" y="10" width="100" height="40" as="geometry" />
        </mxCell>
        <mxCell id="Hxyw7TVed6CMUhGU0ngd-21" value="FirstName" style="ellipse;whiteSpace=wrap;html=1;align=center;" vertex="1" parent="1">
          <mxGeometry x="270" y="10" width="100" height="40" as="geometry" />
        </mxCell>
        <mxCell id="Hxyw7TVed6CMUhGU0ngd-22" value="LastName" style="ellipse;whiteSpace=wrap;html=1;align=center;" vertex="1" parent="1">
          <mxGeometry x="230" y="80" width="100" height="40" as="geometry" />
        </mxCell>
        <mxCell id="Hxyw7TVed6CMUhGU0ngd-23" value="" style="endArrow=none;html=1;rounded=0;exitX=0.993;exitY=0.579;exitDx=0;exitDy=0;exitPerimeter=0;" edge="1" parent="1" source="Hxyw7TVed6CMUhGU0ngd-22">
          <mxGeometry width="50" height="50" relative="1" as="geometry">
            <mxPoint x="285" y="160" as="sourcePoint" />
            <mxPoint x="375" y="110" as="targetPoint" />
          </mxGeometry>
        </mxCell>
        <mxCell id="Hxyw7TVed6CMUhGU0ngd-24" value="" style="endArrow=none;html=1;rounded=0;exitX=0.723;exitY=0.927;exitDx=0;exitDy=0;exitPerimeter=0;entryX=0;entryY=0;entryDx=0;entryDy=0;" edge="1" parent="1" source="Hxyw7TVed6CMUhGU0ngd-21" target="Hxyw7TVed6CMUhGU0ngd-3">
          <mxGeometry width="50" height="50" relative="1" as="geometry">
            <mxPoint x="340" y="50" as="sourcePoint" />
            <mxPoint x="400" y="80" as="targetPoint" />
          </mxGeometry>
        </mxCell>
        <mxCell id="Hxyw7TVed6CMUhGU0ngd-26" value="Position" style="ellipse;whiteSpace=wrap;html=1;align=center;" vertex="1" parent="1">
          <mxGeometry x="600" y="170" width="100" height="40" as="geometry" />
        </mxCell>
        <mxCell id="Hxyw7TVed6CMUhGU0ngd-27" value="" style="endArrow=none;html=1;rounded=0;exitX=1;exitY=0.5;exitDx=0;exitDy=0;" edge="1" parent="1" source="Hxyw7TVed6CMUhGU0ngd-4" target="Hxyw7TVed6CMUhGU0ngd-26">
          <mxGeometry width="50" height="50" relative="1" as="geometry">
            <mxPoint x="390" y="260" as="sourcePoint" />
            <mxPoint x="440" y="210" as="targetPoint" />
          </mxGeometry>
        </mxCell>
        <mxCell id="Hxyw7TVed6CMUhGU0ngd-28" value="UserAccount" style="shape=ext;margin=3;double=1;whiteSpace=wrap;html=1;align=center;" vertex="1" parent="1">
          <mxGeometry x="50" y="280" width="100" height="40" as="geometry" />
        </mxCell>
        <mxCell id="Hxyw7TVed6CMUhGU0ngd-29" value="Registers For" style="shape=rhombus;double=1;perimeter=rhombusPerimeter;whiteSpace=wrap;html=1;align=center;" vertex="1" parent="1">
          <mxGeometry x="150" y="160" width="120" height="60" as="geometry" />
        </mxCell>
        <mxCell id="Hxyw7TVed6CMUhGU0ngd-39" value="" style="shape=link;html=1;rounded=0;entryX=0.419;entryY=0.939;entryDx=0;entryDy=0;entryPerimeter=0;exitX=1;exitY=0;exitDx=0;exitDy=0;" edge="1" parent="1" source="Hxyw7TVed6CMUhGU0ngd-28" target="Hxyw7TVed6CMUhGU0ngd-29">
          <mxGeometry relative="1" as="geometry">
            <mxPoint x="170" y="250" as="sourcePoint" />
            <mxPoint x="330" y="250" as="targetPoint" />
          </mxGeometry>
        </mxCell>
        <mxCell id="Hxyw7TVed6CMUhGU0ngd-40" value="M" style="resizable=0;html=1;whiteSpace=wrap;align=left;verticalAlign=bottom;" connectable="0" vertex="1" parent="Hxyw7TVed6CMUhGU0ngd-39">
          <mxGeometry x="-1" relative="1" as="geometry">
            <mxPoint x="30" y="-10" as="offset" />
          </mxGeometry>
        </mxCell>
        <mxCell id="Hxyw7TVed6CMUhGU0ngd-42" value="" style="endArrow=none;html=1;rounded=0;entryX=0.142;entryY=1.04;entryDx=0;entryDy=0;entryPerimeter=0;exitX=0.873;exitY=0.387;exitDx=0;exitDy=0;exitPerimeter=0;" edge="1" parent="1" source="Hxyw7TVed6CMUhGU0ngd-29" target="Hxyw7TVed6CMUhGU0ngd-3">
          <mxGeometry relative="1" as="geometry">
            <mxPoint x="230" y="200" as="sourcePoint" />
            <mxPoint x="390" y="200" as="targetPoint" />
          </mxGeometry>
        </mxCell>
        <mxCell id="Hxyw7TVed6CMUhGU0ngd-43" value="N" style="resizable=0;html=1;whiteSpace=wrap;align=right;verticalAlign=bottom;" connectable="0" vertex="1" parent="Hxyw7TVed6CMUhGU0ngd-42">
          <mxGeometry x="1" relative="1" as="geometry">
            <mxPoint x="-49" y="48" as="offset" />
          </mxGeometry>
        </mxCell>
        <mxCell id="Hxyw7TVed6CMUhGU0ngd-44" value="&lt;span style=&quot;border-bottom: 1px dotted&quot;&gt;Username&lt;/span&gt;" style="ellipse;whiteSpace=wrap;html=1;align=center;" vertex="1" parent="1">
          <mxGeometry x="10" y="340" width="100" height="40" as="geometry" />
        </mxCell>
        <mxCell id="Hxyw7TVed6CMUhGU0ngd-45" value="" style="endArrow=none;html=1;rounded=0;entryX=0.658;entryY=0.033;entryDx=0;entryDy=0;entryPerimeter=0;exitX=0.377;exitY=1.031;exitDx=0;exitDy=0;exitPerimeter=0;" edge="1" parent="1" source="Hxyw7TVed6CMUhGU0ngd-28" target="Hxyw7TVed6CMUhGU0ngd-44">
          <mxGeometry width="50" height="50" relative="1" as="geometry">
            <mxPoint x="300" y="310" as="sourcePoint" />
            <mxPoint x="350" y="260" as="targetPoint" />
          </mxGeometry>
        </mxCell>
        <mxCell id="Hxyw7TVed6CMUhGU0ngd-48" value="" style="endArrow=none;html=1;rounded=0;exitX=0.5;exitY=1;exitDx=0;exitDy=0;entryX=0.5;entryY=0;entryDx=0;entryDy=0;" edge="1" parent="1" source="Hxyw7TVed6CMUhGU0ngd-5">
          <mxGeometry relative="1" as="geometry">
            <mxPoint x="310" y="320" as="sourcePoint" />
            <mxPoint x="340" y="290" as="targetPoint" />
          </mxGeometry>
        </mxCell>
        <mxCell id="Hxyw7TVed6CMUhGU0ngd-49" value="N" style="resizable=0;html=1;whiteSpace=wrap;align=right;verticalAlign=bottom;" connectable="0" vertex="1" parent="Hxyw7TVed6CMUhGU0ngd-48">
          <mxGeometry x="1" relative="1" as="geometry">
            <mxPoint x="-10" y="-10" as="offset" />
          </mxGeometry>
        </mxCell>
        <mxCell id="Hxyw7TVed6CMUhGU0ngd-51" value="" style="endArrow=none;html=1;rounded=0;entryX=0.5;entryY=1;entryDx=0;entryDy=0;exitX=0.5;exitY=0;exitDx=0;exitDy=0;" edge="1" parent="1">
          <mxGeometry relative="1" as="geometry">
            <mxPoint x="340" y="400" as="sourcePoint" />
            <mxPoint x="340" y="350" as="targetPoint" />
          </mxGeometry>
        </mxCell>
        <mxCell id="Hxyw7TVed6CMUhGU0ngd-52" value="M" style="resizable=0;html=1;whiteSpace=wrap;align=left;verticalAlign=bottom;" connectable="0" vertex="1" parent="Hxyw7TVed6CMUhGU0ngd-51">
          <mxGeometry x="-1" relative="1" as="geometry">
            <mxPoint x="11" y="-10" as="offset" />
          </mxGeometry>
        </mxCell>
        <mxCell id="Hxyw7TVed6CMUhGU0ngd-54" value="ItemID" style="ellipse;whiteSpace=wrap;html=1;align=center;fontStyle=4;" vertex="1" parent="1">
          <mxGeometry x="430" y="410" width="100" height="40" as="geometry" />
        </mxCell>
        <mxCell id="Hxyw7TVed6CMUhGU0ngd-55" value="" style="endArrow=none;html=1;rounded=0;entryX=0.308;entryY=0.963;entryDx=0;entryDy=0;entryPerimeter=0;" edge="1" parent="1" source="Hxyw7TVed6CMUhGU0ngd-54" target="Hxyw7TVed6CMUhGU0ngd-80">
          <mxGeometry width="50" height="50" relative="1" as="geometry">
            <mxPoint x="340" y="500" as="sourcePoint" />
            <mxPoint x="390" y="450" as="targetPoint" />
          </mxGeometry>
        </mxCell>
        <mxCell id="Hxyw7TVed6CMUhGU0ngd-57" value="ItemName" style="ellipse;whiteSpace=wrap;html=1;align=center;" vertex="1" parent="1">
          <mxGeometry x="520" y="440" width="100" height="40" as="geometry" />
        </mxCell>
        <mxCell id="Hxyw7TVed6CMUhGU0ngd-58" value="Description" style="ellipse;whiteSpace=wrap;html=1;align=center;" vertex="1" parent="1">
          <mxGeometry x="570" y="400" width="100" height="40" as="geometry" />
        </mxCell>
        <mxCell id="Hxyw7TVed6CMUhGU0ngd-61" value="Returnable" style="ellipse;whiteSpace=wrap;html=1;align=center;" vertex="1" parent="1">
          <mxGeometry x="560" y="300" width="100" height="40" as="geometry" />
        </mxCell>
        <mxCell id="Hxyw7TVed6CMUhGU0ngd-62" value="" style="endArrow=none;html=1;rounded=0;entryX=0.466;entryY=1.008;entryDx=0;entryDy=0;exitX=0.369;exitY=0.018;exitDx=0;exitDy=0;exitPerimeter=0;entryPerimeter=0;" edge="1" parent="1" source="Hxyw7TVed6CMUhGU0ngd-80" target="Hxyw7TVed6CMUhGU0ngd-79">
          <mxGeometry width="50" height="50" relative="1" as="geometry">
            <mxPoint x="258.70000000000005" y="426.52" as="sourcePoint" />
            <mxPoint x="390" y="400" as="targetPoint" />
          </mxGeometry>
        </mxCell>
        <mxCell id="Hxyw7TVed6CMUhGU0ngd-63" value="" style="endArrow=none;html=1;rounded=0;exitX=0.5;exitY=0;exitDx=0;exitDy=0;entryX=0.727;entryY=0.942;entryDx=0;entryDy=0;entryPerimeter=0;" edge="1" parent="1" source="Hxyw7TVed6CMUhGU0ngd-57" target="Hxyw7TVed6CMUhGU0ngd-80">
          <mxGeometry width="50" height="50" relative="1" as="geometry">
            <mxPoint x="340" y="470" as="sourcePoint" />
            <mxPoint x="390" y="420" as="targetPoint" />
          </mxGeometry>
        </mxCell>
        <mxCell id="Hxyw7TVed6CMUhGU0ngd-64" value="" style="endArrow=none;html=1;rounded=0;exitX=0.194;exitY=0.106;exitDx=0;exitDy=0;exitPerimeter=0;entryX=0.88;entryY=0.808;entryDx=0;entryDy=0;entryPerimeter=0;" edge="1" parent="1" source="Hxyw7TVed6CMUhGU0ngd-58" target="Hxyw7TVed6CMUhGU0ngd-80">
          <mxGeometry width="50" height="50" relative="1" as="geometry">
            <mxPoint x="330" y="480" as="sourcePoint" />
            <mxPoint x="380" y="430" as="targetPoint" />
          </mxGeometry>
        </mxCell>
        <mxCell id="Hxyw7TVed6CMUhGU0ngd-66" value="" style="endArrow=none;html=1;rounded=0;exitX=0.653;exitY=0.027;exitDx=0;exitDy=0;exitPerimeter=0;entryX=0.053;entryY=0.712;entryDx=0;entryDy=0;entryPerimeter=0;" edge="1" parent="1" source="Hxyw7TVed6CMUhGU0ngd-80" target="Hxyw7TVed6CMUhGU0ngd-61">
          <mxGeometry width="50" height="50" relative="1" as="geometry">
            <mxPoint x="400" y="460" as="sourcePoint" />
            <mxPoint x="450" y="410" as="targetPoint" />
          </mxGeometry>
        </mxCell>
        <mxCell id="Hxyw7TVed6CMUhGU0ngd-68" value="StartingBid" style="ellipse;whiteSpace=wrap;html=1;align=center;" vertex="1" parent="1">
          <mxGeometry x="140" y="460" width="100" height="40" as="geometry" />
        </mxCell>
        <mxCell id="Hxyw7TVed6CMUhGU0ngd-69" value="MinSalePrice" style="ellipse;whiteSpace=wrap;html=1;align=center;" vertex="1" parent="1">
          <mxGeometry x="210" y="500" width="100" height="40" as="geometry" />
        </mxCell>
        <mxCell id="Hxyw7TVed6CMUhGU0ngd-70" value="AuctionLength" style="ellipse;whiteSpace=wrap;html=1;align=center;" vertex="1" parent="1">
          <mxGeometry x="150" y="400" width="100" height="40" as="geometry" />
        </mxCell>
        <mxCell id="Hxyw7TVed6CMUhGU0ngd-71" value="AuctionEnd" style="ellipse;whiteSpace=wrap;html=1;align=center;" vertex="1" parent="1">
          <mxGeometry x="315" y="510" width="100" height="40" as="geometry" />
        </mxCell>
        <mxCell id="Hxyw7TVed6CMUhGU0ngd-72" value="" style="endArrow=none;html=1;rounded=0;exitX=0.985;exitY=0.387;exitDx=0;exitDy=0;exitPerimeter=0;entryX=0;entryY=0.5;entryDx=0;entryDy=0;" edge="1" parent="1" source="Hxyw7TVed6CMUhGU0ngd-70">
          <mxGeometry width="50" height="50" relative="1" as="geometry">
            <mxPoint x="430" y="580" as="sourcePoint" />
            <mxPoint x="290" y="420" as="targetPoint" />
          </mxGeometry>
        </mxCell>
        <mxCell id="Hxyw7TVed6CMUhGU0ngd-73" value="" style="endArrow=none;html=1;rounded=0;exitX=0.6;exitY=0;exitDx=0;exitDy=0;exitPerimeter=0;entryX=-0.027;entryY=0.89;entryDx=0;entryDy=0;entryPerimeter=0;" edge="1" parent="1" source="Hxyw7TVed6CMUhGU0ngd-68">
          <mxGeometry width="50" height="50" relative="1" as="geometry">
            <mxPoint x="430" y="580" as="sourcePoint" />
            <mxPoint x="287.29999999999995" y="435.6" as="targetPoint" />
          </mxGeometry>
        </mxCell>
        <mxCell id="Hxyw7TVed6CMUhGU0ngd-74" value="" style="endArrow=none;html=1;rounded=0;entryX=0.08;entryY=0.993;entryDx=0;entryDy=0;entryPerimeter=0;" edge="1" parent="1" source="Hxyw7TVed6CMUhGU0ngd-69">
          <mxGeometry width="50" height="50" relative="1" as="geometry">
            <mxPoint x="460" y="660" as="sourcePoint" />
            <mxPoint x="298.0000000000001" y="439.72" as="targetPoint" />
          </mxGeometry>
        </mxCell>
        <mxCell id="Hxyw7TVed6CMUhGU0ngd-76" value="" style="endArrow=none;html=1;rounded=0;entryX=0.4;entryY=0;entryDx=0;entryDy=0;exitX=0.582;exitY=0.99;exitDx=0;exitDy=0;exitPerimeter=0;entryPerimeter=0;" edge="1" parent="1" target="Hxyw7TVed6CMUhGU0ngd-71">
          <mxGeometry width="50" height="50" relative="1" as="geometry">
            <mxPoint x="348.20000000000005" y="439.6" as="sourcePoint" />
            <mxPoint x="550" y="610" as="targetPoint" />
          </mxGeometry>
        </mxCell>
        <mxCell id="Hxyw7TVed6CMUhGU0ngd-78" value="Condition" style="ellipse;shape=doubleEllipse;margin=3;whiteSpace=wrap;html=1;align=center;" vertex="1" parent="1">
          <mxGeometry x="570" y="350" width="100" height="40" as="geometry" />
        </mxCell>
        <mxCell id="Hxyw7TVed6CMUhGU0ngd-79" value="Category" style="ellipse;shape=doubleEllipse;margin=3;whiteSpace=wrap;html=1;align=center;" vertex="1" parent="1">
          <mxGeometry x="450" y="290" width="100" height="40" as="geometry" />
        </mxCell>
        <mxCell id="Hxyw7TVed6CMUhGU0ngd-80" value="Item" style="ellipse;whiteSpace=wrap;html=1;align=center;" vertex="1" parent="1">
          <mxGeometry x="450" y="360" width="100" height="40" as="geometry" />
        </mxCell>
        <mxCell id="Hxyw7TVed6CMUhGU0ngd-82" value="" style="endArrow=none;html=1;rounded=0;entryX=0.002;entryY=0.5;entryDx=0;entryDy=0;entryPerimeter=0;exitX=1;exitY=0.5;exitDx=0;exitDy=0;" edge="1" parent="1" source="Hxyw7TVed6CMUhGU0ngd-80" target="Hxyw7TVed6CMUhGU0ngd-78">
          <mxGeometry width="50" height="50" relative="1" as="geometry">
            <mxPoint x="525" y="430" as="sourcePoint" />
            <mxPoint x="575" y="380" as="targetPoint" />
          </mxGeometry>
        </mxCell>
        <mxCell id="Hxyw7TVed6CMUhGU0ngd-83" value="AuctionListing" style="shape=ext;margin=3;double=1;whiteSpace=wrap;html=1;align=center;" vertex="1" parent="1">
          <mxGeometry x="290" y="400" width="100" height="40" as="geometry" />
        </mxCell>
        <mxCell id="Hxyw7TVed6CMUhGU0ngd-84" value="Creates" style="shape=rhombus;double=1;perimeter=rhombusPerimeter;whiteSpace=wrap;html=1;align=center;" vertex="1" parent="1">
          <mxGeometry x="280" y="290" width="120" height="60" as="geometry" />
        </mxCell>
        <mxCell id="Hxyw7TVed6CMUhGU0ngd-85" value="Bid" style="shape=ext;margin=3;double=1;whiteSpace=wrap;html=1;align=center;" vertex="1" parent="1">
          <mxGeometry x="480" y="520" width="100" height="40" as="geometry" />
        </mxCell>
      </root>
    </mxGraphModel>
  </diagram>
</mxfile>
